<svg xmlns="http://www.w3.org/2000/svg" viewBox="0 0 150 100" width="100%" height="100%">
  <defs>
    <linearGradient id="goldGradient" x1="0%" y1="0%" x2="100%" y2="100%">
      <stop offset="0%" stop-color="#C89B3C" />
      <stop offset="30%" stop-color="#E5C173" />
      <stop offset="50%" stop-color="#F2DF9D" />
      <stop offset="70%" stop-color="#E5C173" />
      <stop offset="100%" stop-color="#AA802C" />
    </linearGradient>
  </defs>
  
  <!-- Pixel Perfect vector paths for VP letters with zero horizontal spacing overlap -->
  <g transform="translate(5, 8)">
    <!-- Letter 'V' -->
    <path fill="url(#goldGradient)" d="M74.70 14.10Q74.70 17.90 73.25 23.45Q71.80 29 69.45 35.55Q67.10 42.10 64.50 48.90Q61.90 55.70 59.55 62.05Q57.20 68.40 55.75 73.55Q54.30 78.70 54.30 81.80Q54.30 86.50 57.40 86.50Q60.40 86.50 64.70 83.75Q69 81 73.85 76.35Q78.70 71.70 83.40 65.75Q88.10 59.80 91.95 53.40Q95.80 47 98.10 40.75Q100.40 34.50 100.40 29.30Q100.40 25.80 99.45 23Q98.50 20.20 95.50 20.20Q94.20 20.20 93.45 19.65Q92.70 19.10 92.70 18.60Q92.70 17.60 94.40 17.60Q95.60 17.60 97.45 18.45Q99.30 19.30 101.15 21.05Q103 22.80 104.30 25.50Q105.60 28.20 105.60 31.90Q105.60 36.50 103.15 42.55Q100.70 48.60 96.55 55.05Q92.40 61.50 87.15 67.65Q81.90 73.80 76.20 78.75Q70.50 83.70 65.05 86.65Q59.60 89.60 55 89.60Q51.10 89.60 49.80 87.20Q48.50 84.80 48.50 80.90Q48.50 74.80 50.55 67.60Q52.60 60.40 55.65 52.65Q58.70 44.90 61.75 37.20Q64.80 29.50 66.85 22.40Q68.90 15.30 68.90 9.30Q68.90 2.50 65.05 0.10Q61.20-2.30 55-2.30Q48.90-2.30 42.05 0Q35.20 2.30 28.65 6.50Q22.10 10.70 16.80 16.55Q11.50 22.40 8.35 29.55Q5.20 36.70 5.20 44.90Q5.20 49.70 6.85 53.85Q8.50 58 12.20 60.55Q15.90 63.10 21.90 63.10Q26.40 63.10 30.55 61.20Q34.70 59.30 37.90 56.05Q41.10 52.80 43 48.80Q44.90 44.80 44.90 40.60Q44.90 37.20 43.50 34.65Q42.10 32.10 38.80 32.10Q37.50 32.10 36.10 32.50Q34.70 32.90 34.20 32.90Q33.70 32.90 33.70 32.30Q33.70 32.10 33.90 31.80Q34.10 31.50 34.60 31.20Q35.70 30.60 37.30 30.25Q38.90 29.90 40.10 29.90Q44.50 29.90 46.90 33Q49.30 36.10 49.30 40.50Q49.30 45.30 46.80 49.80Q44.30 54.30 40.15 57.90Q36 61.50 30.85 63.60Q25.70 65.70 20.30 65.70Q13.60 65.70 8.95 62.40Q4.30 59.10 1.95 53.75Q-0.40 48.40-0.40 42.30Q-0.40 34.40 2.75 27.25Q5.90 20.10 11.40 14.25Q16.90 8.40 23.90 4.10Q30.90-0.20 38.65-2.55Q46.40-4.90 54.10-4.90Q59.90-4.90 64.55-3Q69.20-1.10 71.95 3.05Q74.70 7.20 74.70 14.10" />
    
    <!-- Letter 'P' -->
    <path fill="url(#goldGradient)" d="M46.90 83.90Q44.70 83.90 42.60 83.60Q36.30 82.80 33.35 79.90Q30.40 77 30.40 73.60Q30.40 69.90 33.75 66.90Q37.10 63.90 43.20 63.90Q45.10 63.90 47.25 64.25Q49.40 64.60 51.80 65.40Q53 65.80 53 66.50Q53 66.90 52.40 66.90Q51.80 66.90 51.40 66.70Q49.80 66.10 48.35 65.85Q46.90 65.60 45.60 65.60Q41.30 65.60 39.05 68.05Q36.80 70.50 36.80 73.40Q36.80 76.20 39.10 78.50Q41.40 80.80 46.40 80.80Q52.70 80.80 58.05 77.90Q63.40 75 68.20 70.30Q73.30 65.30 77.50 58.25Q81.70 51.20 85.85 43.15Q90 35.10 94.90 26.90Q99.80 18.70 106.20 11.50Q107.50 10.10 108.85 8.55Q110.20 7 111.50 5.90Q108.10 5.40 104.50 5.15Q100.90 4.90 97.40 4.90Q92.20 4.90 87.55 5.35Q82.90 5.80 78.30 6.60Q73.60 7.50 67.80 9.40Q62 11.30 56.55 14.35Q51.10 17.40 47.25 21.70Q43.40 26 42.50 31.60Q42.40 32.10 42.35 32.65Q42.30 33.20 42.30 33.70Q42.30 38.30 45.45 41.30Q48.60 44.30 52.80 44.30Q55.90 44.30 58.80 42.65Q61.70 41 64 38.25Q66.30 35.50 67.40 32.20Q67.50 31.20 68.20 31.20Q68.80 31.20 68.80 32.30Q68.70 36.70 66.25 39.90Q63.80 43.10 60.10 44.75Q56.40 46.40 52.60 46.40Q48.70 46.40 45.20 44.75Q41.70 43.10 39.50 39.85Q37.30 36.60 37.30 31.80Q37.30 26.20 40.05 21.90Q42.80 17.60 47.40 14.35Q52 11.10 57.40 8.85Q62.80 6.60 68.20 5.25Q73.60 3.90 78 3.20Q82.50 2.50 87.35 2.10Q92.20 1.70 97.20 1.70Q101.50 1.70 105.80 2.10Q110.10 2.50 114.20 3.30Q115.90 2 117.70 1Q119.50 0 121.70-0.80Q123.10-1.40 123.80-1.40Q124.40-1.40 124.40-1Q124.40-0.30 122.80 0.70Q122 1.10 120.80 2.10Q119.60 3.10 118.20 4.40Q124.70 6 129.90 9.20Q135.60 12.60 138.05 16.40Q140.50 20.20 140.50 24.20Q140.50 28.80 137.70 33.35Q134.90 37.90 130.40 41.80Q125.90 45.70 120.50 48.55Q115.10 51.40 109.80 52.70Q104.70 54 99.50 54.60Q94.30 55.20 90.20 55.20Q89.50 55.20 88.75 55.20Q88 55.20 87.30 55.10Q83.90 59.90 80.30 64.45Q76.70 69 72.20 73.30Q66.70 78.50 60.20 81.20Q53.70 83.90 46.90 83.90M88.70 52.90Q92.50 53 97.20 52.30Q101.90 51.60 106.60 50.20Q114.40 47.80 120.65 43.30Q126.90 38.80 130.55 33.30Q134.20 27.80 134.20 22.50Q134.20 19.30 132.65 16.40Q131.10 13.50 127.60 11.20Q125.30 9.70 122.40 8.60Q119.50 7.50 116.30 6.80Q111.20 14 106.75 21.80Q102.30 29.60 97.95 37.50Q93.60 45.40 88.70 52.90" />
  </g>
</svg>
