<svg xmlns="http://www.w3.org/2000/svg" viewBox="0 0 250 100" width="100%" height="100%">
  <defs>
    <linearGradient id="goldGradient" x1="0%" y1="0%" x2="100%" y2="100%">
      <stop offset="0%" stop-color="#C89B3C" />
      <stop offset="30%" stop-color="#E5C173" />
      <stop offset="50%" stop-color="#F2DF9D" />
      <stop offset="70%" stop-color="#E5C173" />
      <stop offset="100%" stop-color="#AA802C" />
    </linearGradient>
  </defs>
  
  <!-- Pixel Perfect vector paths for VP letters with standard typographic spacing -->
  <g transform="translate(5, 8)">
    <!-- Letter 'V' -->
    <path fill="url(#goldGradient)" d="M74.70 14.10Q74.70 17.90 73.25 23.45Q71.80 29 69.45 35.55Q67.10 42.10 64.50 48.90Q61.90 55.70 59.55 62.05Q57.20 68.40 55.75 73.55Q54.30 78.70 54.30 81.80Q54.30 86.50 57.40 86.50Q60.40 86.50 64.70 83.75Q69 81 73.85 76.35Q78.70 71.70 83.40 65.75Q88.10 59.80 91.95 53.40Q95.80 47 98.10 40.75Q100.40 34.50 100.40 29.30Q100.40 25.80 99.45 23Q98.50 20.20 95.50 20.20Q94.20 20.20 93.45 19.65Q92.70 19.10 92.70 18.60Q92.70 17.60 94.40 17.60Q95.60 17.60 97.45 18.45Q99.30 19.30 101.15 21.05Q103 22.80 104.30 25.50Q105.60 28.20 105.60 31.90Q105.60 36.50 103.15 42.55Q100.70 48.60 96.55 55.05Q92.40 61.50 87.15 67.65Q81.90 73.80 76.20 78.75Q70.50 83.70 65.05 86.65Q59.60 89.60 55 89.60Q51.10 89.60 49.80 87.20Q48.50 84.80 48.50 80.90Q48.50 74.80 50.55 67.60Q52.60 60.40 55.65 52.65Q58.70 44.90 61.75 37.20Q64.80 29.50 66.85 22.40Q68.90 15.30 68.90 9.30Q68.90 2.50 65.05 0.10Q61.20-2.30 55-2.30Q48.90-2.30 42.05 0Q35.20 2.30 28.65 6.50Q22.10 10.70 16.80 16.55Q11.50 22.40 8.35 29.55Q5.20 36.70 5.20 44.90Q5.20 49.70 6.85 53.85Q8.50 58 12.20 60.55Q15.90 63.10 21.90 63.10Q26.40 63.10 30.55 61.20Q34.70 59.30 37.90 56.05Q41.10 52.80 43 48.80Q44.90 44.80 44.90 40.60Q44.90 37.20 43.50 34.65Q42.10 32.10 38.80 32.10Q37.50 32.10 36.10 32.50Q34.70 32.90 34.20 32.90Q33.70 32.90 33.70 32.30Q33.70 32.10 33.90 31.80Q34.10 31.50 34.60 31.20Q35.70 30.60 37.30 30.25Q38.90 29.90 40.10 29.90Q44.50 29.90 46.90 33Q49.30 36.10 49.30 40.50Q49.30 45.30 46.80 49.80Q44.30 54.30 40.15 57.90Q36 61.50 30.85 63.60Q25.70 65.70 20.30 65.70Q13.60 65.70 8.95 62.40Q4.30 59.10 1.95 53.75Q-0.40 48.40-0.40 42.30Q-0.40 34.40 2.75 27.25Q5.90 20.10 11.40 14.25Q16.90 8.40 23.90 4.10Q30.90-0.20 38.65-2.55Q46.40-4.90 54.10-4.90Q59.90-4.90 64.55-3Q69.20-1.10 71.95 3.05Q74.70 7.20 74.70 14.10" />
    
    <!-- Letter 'P' -->
    <path fill="url(#goldGradient)" d="M114.90 83.90Q112.70 83.90 110.60 83.60Q104.30 82.80 101.35 79.90Q98.40 77 98.40 73.60Q98.40 69.90 101.75 66.90Q105.10 63.90 111.20 63.90Q113.10 63.90 115.25 64.25Q117.40 64.60 119.80 65.40Q121 65.80 121 66.50Q121 66.90 120.40 66.90Q119.80 66.90 119.40 66.70Q117.80 66.10 116.35 65.85Q114.90 65.60 113.60 65.60Q109.30 65.60 107.05 68.05Q104.80 70.50 104.80 73.40Q104.80 76.20 107.10 78.50Q109.40 80.80 114.40 80.80Q120.70 80.80 126.05 77.90Q131.40 75 136.20 70.30Q141.30 65.30 145.50 58.25Q149.70 51.20 153.85 43.15Q158 35.10 162.90 26.90Q167.80 18.70 174.20 11.50Q175.50 10.10 176.85 8.55Q178.20 7 179.50 5.90Q176.10 5.40 172.50 5.15Q168.90 4.90 165.40 4.90Q160.20 4.90 155.55 5.35Q150.90 5.80 146.30 6.60Q141.60 7.50 135.80 9.40Q130 11.30 124.55 14.35Q119.10 17.40 115.25 21.70Q111.40 26 110.50 31.60Q110.40 32.10 110.35 32.65Q110.30 33.20 110.30 33.70Q110.30 38.30 113.45 41.30Q116.60 44.30 120.80 44.30Q123.90 44.30 126.80 42.65Q129.70 41 132 38.25Q134.30 35.50 135.40 32.20Q135.50 31.20 136.20 31.20Q136.80 31.20 136.80 32.30Q136.70 36.70 134.25 39.90Q131.80 43.10 128.10 44.75Q124.40 46.40 120.60 46.40Q116.70 46.40 113.20 44.75Q109.70 43.10 107.50 39.85Q105.30 36.60 105.30 31.80Q105.30 26.20 108.05 21.90Q110.80 17.60 115.40 14.35Q120 11.10 125.40 8.85Q130.80 6.60 136.20 5.25Q141.60 3.90 146 3.20Q150.50 2.50 155.35 2.10Q160.20 1.70 165.20 1.70Q169.50 1.70 173.80 2.10Q178.10 2.50 182.20 3.30Q183.90 2 185.70 1Q187.50 0 189.70-0.80Q191.10-1.40 191.80-1.40Q192.40-1.40 192.40-1Q192.40-0.30 190.80 0.70Q190 1.10 188.80 2.10Q187.60 3.10 186.20 4.40Q192.70 6 197.90 9.20Q203.60 12.60 206.05 16.40Q208.50 20.20 208.50 24.20Q208.50 28.80 205.70 33.35Q202.90 37.90 198.40 41.80Q193.90 45.70 188.50 48.55Q183.10 51.40 177.80 52.70Q172.70 54 167.50 54.60Q162.30 55.20 158.20 55.20Q157.50 55.20 156.75 55.20Q156 55.20 155.30 55.10Q151.90 59.90 148.30 64.45Q144.70 69 140.20 73.30Q134.70 78.50 128.20 81.20Q121.70 83.90 114.90 83.90M156.70 52.90Q160.50 53 165.20 52.30Q169.90 51.60 174.60 50.20Q182.40 47.80 188.65 43.30Q194.90 38.80 198.55 33.30Q202.20 27.80 202.20 22.50Q202.20 19.30 200.65 16.40Q199.10 13.50 195.60 11.20Q193.30 9.70 190.40 8.60Q187.50 7.50 184.30 6.80Q179.20 14 174.75 21.80Q170.30 29.60 165.95 37.50Q161.60 45.40 156.70 52.90" />
  </g>
</svg>
