<svg xmlns="http://www.w3.org/2000/svg" viewBox="0 0 175 105" width="100%" height="100%">
  <defs>
    <linearGradient id="goldGradient" x1="0%" y1="0%" x2="100%" y2="100%">
      <stop offset="0%" stop-color="#C89B3C" />
      <stop offset="30%" stop-color="#E5C173" />
      <stop offset="50%" stop-color="#F2DF9D" />
      <stop offset="70%" stop-color="#E5C173" />
      <stop offset="100%" stop-color="#AA802C" />
    </linearGradient>
  </defs>
  
  <!-- Pixel Perfect vector paths for VP letters from the Great Vibes font -->
  <g transform="translate(5, 10)">
    <!-- Letter 'V' -->
    <path fill="url(#goldGradient)" d="M74.70 14.10Q74.70 17.90 73.25 23.45Q71.80 29 69.45 35.55Q67.10 42.10 64.50 48.90Q61.90 55.70 59.55 62.05Q57.20 68.40 55.75 73.55Q54.30 78.70 54.30 81.80Q54.30 86.50 57.40 86.50Q60.40 86.50 64.70 83.75Q69 81 73.85 76.35Q78.70 71.70 83.40 65.75Q88.10 59.80 91.95 53.40Q95.80 47 98.10 40.75Q100.40 34.50 100.40 29.30Q100.40 25.80 99.45 23Q98.50 20.20 95.50 20.20Q94.20 20.20 93.45 19.65Q92.70 19.10 92.70 18.60Q92.70 17.60 94.40 17.60Q95.60 17.60 97.45 18.45Q99.30 19.30 101.15 21.05Q103 22.80 104.30 25.50Q105.60 28.20 105.60 31.90Q105.60 36.50 103.15 42.55Q100.70 48.60 96.55 55.05Q92.40 61.50 87.15 67.65Q81.90 73.80 76.20 78.75Q70.50 83.70 65.05 86.65Q59.60 89.60 55 89.60Q51.10 89.60 49.80 87.20Q48.50 84.80 48.50 80.90Q48.50 74.80 50.55 67.60Q52.60 60.40 55.65 52.65Q58.70 44.90 55.65 52.65Q58.70 44.90 61.75 37.20Q64.80 29.50 66.85 22.40Q68.90 15.30 68.90 9.30Q68.90 2.50 65.05 0.10Q61.20-2.30 55-2.30Q48.90-2.30 42.05 0Q35.20 2.30 28.65 6.50Q22.10 10.70 16.80 16.55Q11.50 22.40 8.35 29.55Q5.20 36.70 5.20 44.90Q5.20 49.70 6.85 53.85Q8.50 58 12.20 60.55Q15.90 63.10 21.90 63.10Q26.40 63.10 30.55 61.20Q34.70 59.30 37.90 56.05Q41.10 52.80 43 48.80Q44.90 44.80 44.90 40.60Q44.90 37.20 43.50 34.65Q42.10 32.10 38.80 32.10Q37.50 32.10 36.10 32.50Q34.70 32.90 34.20 32.90Q33.70 32.90 33.70 32.30Q33.70 32.10 33.90 31.80Q34.10 31.50 34.60 31.20Q35.70 30.60 37.30 30.25Q38.90 29.90 40.10 29.90Q44.50 29.90 46.90 33Q49.30 36.10 49.30 40.50Q49.30 45.30 46.80 49.80Q44.30 54.30 40.15 57.90Q36 61.50 30.85 63.60Q25.70 65.70 20.30 65.70Q13.60 65.70 8.95 62.40Q4.30 59.10 1.95 53.75Q-0.40 48.40-0.40 42.30Q-0.40 34.40 2.75 27.25Q5.90 20.10 11.40 14.25Q16.90 8.40 23.90 4.10Q30.90-0.20 38.65-2.55Q46.40-4.90 54.10-4.90Q59.90-4.90 64.55-3Q69.20-1.10 71.95 3.05Q74.70 7.20 74.70 14.10" />
    
    <!-- Letter 'P' -->
    <path fill="url(#goldGradient)" d="M68.90 83.90Q66.70 83.90 64.60 83.60Q58.30 82.80 55.35 79.90Q52.40 77 52.40 73.60Q52.40 69.90 55.75 66.90Q59.10 63.90 65.20 63.90Q67.10 63.90 69.25 64.25Q71.40 64.60 73.80 65.40Q75 65.80 75 66.50Q75 66.90 74.40 66.90Q73.80 66.90 73.40 66.70Q71.80 66.10 70.35 65.85Q68.90 65.60 67.60 65.60Q63.30 65.60 61.05 68.05Q58.80 70.50 58.80 73.40Q58.80 76.20 61.10 78.50Q63.40 80.80 68.40 80.80Q74.70 80.80 80.05 77.90Q85.40 75 90.20 70.30Q95.30 65.30 99.50 58.25Q103.70 51.20 107.85 43.15Q112 35.10 116.90 26.90Q121.80 18.70 128.20 11.50Q129.50 10.10 130.85 8.55Q132.20 7 133.50 5.90Q130.10 5.40 126.50 5.15Q122.90 4.90 119.40 4.90Q114.20 4.90 109.55 5.35Q104.90 5.80 100.30 6.60Q95.60 7.50 89.80 9.40Q84 11.30 78.55 14.35Q73.10 17.40 69.25 21.70Q65.40 26 64.50 31.60Q64.40 32.10 64.35 32.65Q64.30 33.20 64.30 33.70Q64.30 38.30 67.45 41.30Q70.60 44.30 74.80 44.30Q77.90 44.30 80.80 42.65Q83.70 41 86 38.25Q88.30 35.50 89.40 32.20Q89.50 31.20 90.20 31.20Q90.80 31.20 90.80 32.30Q90.70 36.70 88.25 39.90Q85.80 43.10 82.10 44.75Q78.40 46.40 74.60 46.40Q70.70 46.40 67.20 44.75Q63.70 43.10 61.50 39.85Q59.30 36.60 59.30 31.80Q59.30 26.20 62.05 21.90Q64.80 17.60 69.40 14.35Q74 11.10 79.40 8.85Q84.80 6.60 90.20 5.25Q95.60 3.90 100 3.20Q104.50 2.50 109.35 2.10Q114.20 1.70 119.20 1.70Q123.50 1.70 127.80 2.10Q132.10 2.50 136.20 3.30Q137.90 2 139.70 1Q141.50 0 143.70-0.80Q145.10-1.40 145.80-1.40Q146.40-1.40 146.40-1Q146.40-0.30 144.80 0.70Q144 1.10 142.80 2.10Q141.60 3.10 140.20 4.40Q146.70 6 151.90 9.20Q157.60 12.60 160.05 16.40Q162.50 20.20 162.50 24.20Q162.50 28.80 159.70 33.35Q156.90 37.90 152.40 41.80Q147.90 45.70 142.50 48.55Q137.10 51.40 131.80 52.70Q126.70 54 121.50 54.60Q116.30 55.20 112.20 55.20Q111.50 55.20 110.75 55.20Q110 55.20 109.30 55.10Q105.90 59.90 102.30 64.45Q98.70 69 94.20 73.30Q88.70 78.50 82.20 81.20Q75.70 83.90 68.90 83.90M110.70 52.90Q114.50 53 119.20 52.30Q123.90 51.60 128.60 50.20Q136.40 47.80 142.65 43.30Q148.90 38.80 152.55 33.30Q156.20 27.80 156.20 22.50Q156.20 19.30 154.65 16.40Q153.10 13.50 149.60 11.20Q147.30 9.70 144.40 8.60Q141.50 7.50 138.30 6.80Q133.20 14 128.75 21.80Q124.30 29.60 119.95 37.50Q115.60 45.40 110.70 52.90" />
  </g>
</svg>
